<svg xmlns="http://www.w3.org/2000/svg" xmlns:xlink="http://www.w3.org/1999/xlink" width="375" viewBox="0 0 375 375" height="375" version="1.0"><defs><clipPath id="a"><path d="M 114.519531 150 L 123 150 L 123 170 L 114.519531 170 Z M 114.519531 150"/></clipPath><clipPath id="b"><path d="M 127 148 L 174 148 L 174 241.359375 L 127 241.359375 Z M 127 148"/></clipPath><clipPath id="c"><path d="M 247 149 L 255.519531 149 L 255.519531 169 L 247 169 Z M 247 149"/></clipPath><clipPath id="d"><path d="M 199 148 L 244 148 L 244 241.359375 L 199 241.359375 Z M 199 148"/></clipPath><clipPath id="e"><path d="M 159 89.109375 L 211 89.109375 L 211 187 L 159 187 Z M 159 89.109375"/></clipPath><g id="f"><path d="M 7.03125 -13 C 11.570312 -13 13.84375 -10.832031 13.84375 -6.5 C 13.84375 -2.164062 11.570312 0 7.03125 0 L 1.390625 0 L 1.390625 -13 Z M 5.578125 -3.109375 L 6.953125 -3.109375 C 8.703125 -3.109375 9.578125 -4.050781 9.578125 -5.9375 L 9.578125 -7.0625 C 9.578125 -8.9375 8.703125 -9.875 6.953125 -9.875 L 5.578125 -9.875 Z M 5.578125 -3.109375"/></g><g id="g"><path d="M 10.109375 0 L 9.5625 -1.828125 L 5 -1.828125 L 4.453125 0 L 0.1875 0 L 4.9375 -13 L 9.78125 -13 L 14.53125 0 Z M 5.875 -4.734375 L 8.6875 -4.734375 L 7.328125 -9.375 L 7.25 -9.375 Z M 5.875 -4.734375"/></g><g id="h"><path d="M 10.6875 0 L 5.234375 -6.3125 L 5.234375 0 L 1.390625 0 L 1.390625 -13 L 5.046875 -13 L 10.5 -6.59375 L 10.5 -13 L 14.34375 -13 L 14.34375 0 Z M 10.6875 0"/></g></defs><path fill="#FFF" d="M-37.5 -37.5H412.5V412.5H-37.5z"/><path fill="#FFF" d="M-37.5 -37.5H412.5V412.5H-37.5z"/><path fill="#FFFFF9" d="M-37.5 -37.5H412.5V412.5H-37.5z"/><path fill="#FFDE59" d="M 185.910156 74.234375 C 124.816406 74.234375 75.285156 123.929688 75.285156 185.234375 C 75.285156 246.539062 124.816406 296.234375 185.910156 296.234375 C 247.007812 296.234375 296.535156 246.539062 296.535156 185.234375 C 296.535156 123.929688 247.007812 74.234375 185.910156 74.234375 Z M 185.910156 74.234375"/><g clip-path="url(#a)"><path fill="#BE5E3E" d="M 121.996094 157.027344 C 121.996094 157.027344 119.46875 148.132812 114.542969 151.035156 C 114.542969 151.035156 119.578125 163.753906 120.328125 167.878906 C 120.328125 167.878906 121.226562 168.921875 122.957031 169.523438 L 121.996094 157.027344"/></g><path fill="#CF7D57" d="M 167.28125 196.332031 C 167.28125 196.332031 160.1875 188.300781 159.171875 185.167969 C 159.171875 185.167969 158.785156 181.230469 156.609375 178.164062 C 156.609375 178.164062 157.546875 167.554688 151.738281 166.308594 C 151.738281 166.308594 149.71875 165.878906 148.703125 169.207031 C 148.703125 169.207031 148.449219 170.484375 148.945312 178.84375 C 148.945312 178.84375 151.835938 187.652344 150.917969 191.578125 L 167.28125 196.332031"/><path fill="#CF7D57" d="M 129.238281 158.316406 C 129.238281 158.316406 127.503906 154.167969 126.703125 153.800781 C 126.703125 153.800781 131.683594 139.507812 122.683594 139.355469 C 122.683594 139.355469 122.574219 147.503906 120.964844 152.707031 C 120.964844 152.707031 120.386719 154.589844 120.875 156.320312 C 120.875 156.320312 121.859375 166.082031 121.398438 168.566406 C 121.398438 168.566406 121.546875 170.824219 127.105469 174.242188 C 132.664062 177.660156 129.238281 158.316406 129.238281 158.316406"/><path fill="#C36746" d="M 126.710938 153.773438 L 126.71875 153.75 L 126.726562 153.730469 L 126.742188 153.683594 L 126.75 153.664062 L 126.773438 153.589844 L 126.777344 153.570312 C 126.789062 153.539062 126.804688 153.5 126.816406 153.457031 C 126.84375 153.371094 126.875 153.269531 126.910156 153.152344 L 126.917969 153.128906 C 126.933594 153.082031 126.945312 153.027344 126.960938 152.972656 L 126.972656 152.9375 C 126.988281 152.882812 127.003906 152.828125 127.023438 152.769531 L 127.03125 152.734375 C 127.050781 152.667969 127.070312 152.601562 127.089844 152.53125 L 127.09375 152.515625 C 127.136719 152.359375 127.183594 152.1875 127.226562 152.011719 L 127.234375 151.988281 C 127.253906 151.910156 127.273438 151.828125 127.296875 151.746094 L 127.308594 151.691406 C 127.328125 151.617188 127.347656 151.542969 127.363281 151.464844 L 127.382812 151.394531 C 127.398438 151.320312 127.417969 151.242188 127.433594 151.160156 L 127.449219 151.097656 C 127.472656 151.003906 127.492188 150.90625 127.515625 150.8125 L 127.515625 150.792969 C 126.214844 153.074219 125.550781 155.925781 124.863281 157.105469 C 124.453125 157.800781 123.132812 164.476562 122.105469 170.042969 C 122.59375 170.71875 123.410156 171.609375 124.789062 172.664062 L 125.238281 171.777344 L 129.132812 158.070312 C 129.109375 158.019531 129.082031 157.953125 129.054688 157.882812 L 129.050781 157.875 C 128.988281 157.738281 128.914062 157.566406 128.828125 157.378906 L 128.824219 157.371094 C 128.785156 157.285156 128.742188 157.191406 128.699219 157.101562 L 128.675781 157.050781 C 128.636719 156.957031 128.589844 156.863281 128.546875 156.765625 L 128.523438 156.722656 C 128.480469 156.625 128.433594 156.53125 128.386719 156.433594 L 128.371094 156.40625 C 128.324219 156.304688 128.277344 156.207031 128.226562 156.105469 L 128.191406 156.039062 C 128.144531 155.941406 128.09375 155.84375 128.046875 155.746094 L 128.011719 155.683594 C 127.960938 155.582031 127.910156 155.484375 127.855469 155.386719 L 127.839844 155.355469 C 127.789062 155.265625 127.742188 155.179688 127.691406 155.089844 L 127.660156 155.039062 C 127.609375 154.949219 127.5625 154.863281 127.507812 154.78125 L 127.476562 154.722656 C 127.425781 154.640625 127.375 154.5625 127.324219 154.488281 L 127.304688 154.453125 C 127.253906 154.382812 127.207031 154.316406 127.160156 154.253906 L 127.144531 154.226562 C 127.097656 154.164062 127.050781 154.109375 127.003906 154.054688 L 126.976562 154.023438 C 126.933594 153.976562 126.890625 153.933594 126.847656 153.898438 L 126.828125 153.878906 C 126.78125 153.847656 126.742188 153.816406 126.703125 153.800781 L 126.707031 153.789062 L 126.710938 153.773438"/><path fill="#CF7D57" d="M 131.828125 165.464844 C 131.828125 165.464844 132.761719 159.355469 132.148438 157.785156 C 132.148438 157.785156 139.925781 145.511719 134.914062 141.652344 C 134.914062 141.652344 134.398438 141.132812 132.90625 141.324219 C 132.90625 141.324219 129.375 150.179688 127.21875 153.757812 C 127.21875 153.757812 126.636719 154.652344 126.429688 155.710938 C 126.429688 155.710938 124.539062 166.683594 123.921875 167.796875 C 123.921875 167.796875 122.21875 170 122.714844 171.722656 C 122.714844 171.722656 133.058594 189.707031 134.113281 192.820312 C 135.167969 195.9375 136.210938 179.6875 136.210938 179.6875 L 131.828125 165.464844"/><g clip-path="url(#b)"><path fill="#E8A982" d="M 132.769531 191.210938 C 133.933594 196.765625 141.894531 201.625 141.894531 201.625 C 152.351562 210.796875 153.304688 211.335938 153.304688 211.335938 L 149.589844 241.382812 L 171.148438 241.382812 C 171.289062 216.84375 173.117188 208.140625 173.117188 208.140625 C 174.886719 195.425781 154.5 190.289062 154.5 190.289062 C 147.832031 186.121094 142.375 181.699219 142.375 181.699219 C 139.539062 175.226562 136.015625 171.984375 136.015625 171.984375 C 138.546875 164.917969 137.523438 160.386719 137.523438 160.386719 C 146.226562 148.648438 138.714844 148.34375 138.714844 148.34375 L 132.210938 158.414062 C 130.566406 162.753906 128.285156 170.046875 128.285156 170.046875 C 126.726562 173.167969 128.40625 175.257812 128.40625 175.257812 C 130.121094 181.089844 132.769531 191.210938 132.769531 191.210938"/></g><path fill="#CF7D57" d="M 204.792969 197.300781 C 204.792969 197.300781 211.527344 188.96875 212.40625 185.792969 C 212.40625 185.792969 212.621094 181.839844 214.660156 178.683594 C 214.660156 178.683594 213.257812 168.125 219.007812 166.625 C 219.007812 166.625 221.003906 166.109375 222.167969 169.390625 C 222.167969 169.390625 222.476562 170.652344 222.34375 179.027344 C 222.34375 179.027344 219.839844 187.957031 220.929688 191.835938 L 204.792969 197.300781"/><g clip-path="url(#c)"><path fill="#BE5E3E" d="M 248.316406 156.054688 C 248.316406 156.054688 250.449219 147.058594 255.5 149.746094 C 255.5 149.746094 251.023438 162.671875 250.453125 166.824219 C 250.453125 166.824219 249.605469 167.902344 247.902344 168.582031 L 248.316406 156.054688"/></g><path fill="#CF7D57" d="M 241.136719 157.660156 C 241.136719 157.660156 242.6875 153.441406 243.46875 153.035156 C 243.46875 153.035156 237.867188 138.976562 246.855469 138.429688 C 246.855469 138.429688 247.320312 146.566406 249.15625 151.695312 C 249.15625 151.695312 249.816406 153.550781 249.40625 155.300781 C 249.40625 155.300781 248.847656 165.097656 249.417969 167.558594 C 249.417969 167.558594 249.367188 169.824219 243.964844 173.480469 C 238.5625 177.136719 241.136719 157.660156 241.136719 157.660156"/><path fill="#C36746" d="M 243.460938 153.011719 L 243.453125 152.992188 L 243.445312 152.96875 L 243.425781 152.921875 L 243.417969 152.902344 L 243.390625 152.832031 L 243.386719 152.8125 C 243.371094 152.78125 243.359375 152.742188 243.34375 152.699219 C 243.3125 152.613281 243.277344 152.511719 243.234375 152.398438 L 243.226562 152.378906 C 243.210938 152.328125 243.195312 152.277344 243.175781 152.222656 L 243.164062 152.1875 C 243.144531 152.132812 243.125 152.078125 243.105469 152.019531 L 243.097656 151.988281 C 243.074219 151.921875 243.050781 151.855469 243.027344 151.785156 L 243.023438 151.769531 C 242.972656 151.613281 242.921875 151.449219 242.867188 151.273438 L 242.863281 151.253906 C 242.835938 151.175781 242.8125 151.09375 242.789062 151.011719 L 242.773438 150.957031 C 242.75 150.882812 242.730469 150.808594 242.707031 150.734375 L 242.6875 150.664062 C 242.664062 150.589844 242.644531 150.511719 242.625 150.433594 L 242.605469 150.371094 C 242.582031 150.277344 242.554688 150.183594 242.53125 150.085938 L 242.523438 150.070312 C 243.925781 152.289062 244.714844 155.113281 245.453125 156.257812 C 245.890625 156.9375 247.503906 163.546875 248.773438 169.0625 C 248.316406 169.761719 247.539062 170.6875 246.210938 171.796875 L 246.210938 171.800781 L 245.71875 170.933594 L 241.226562 157.410156 C 241.25 157.355469 241.273438 157.292969 241.300781 157.21875 L 241.304688 157.214844 C 241.359375 157.070312 241.425781 156.898438 241.503906 156.707031 L 241.507812 156.699219 C 241.542969 156.609375 241.582031 156.515625 241.621094 156.421875 L 241.640625 156.371094 C 241.679688 156.277344 241.71875 156.179688 241.761719 156.078125 L 241.78125 156.035156 C 241.820312 155.941406 241.863281 155.839844 241.902344 155.742188 L 241.917969 155.710938 C 241.960938 155.609375 242.003906 155.507812 242.050781 155.40625 L 242.082031 155.339844 C 242.125 155.242188 242.167969 155.140625 242.214844 155.042969 L 242.246094 154.976562 C 242.292969 154.871094 242.339844 154.773438 242.386719 154.675781 L 242.402344 154.640625 C 242.449219 154.550781 242.492188 154.457031 242.539062 154.371094 L 242.566406 154.316406 C 242.613281 154.226562 242.660156 154.136719 242.707031 154.050781 L 242.738281 153.992188 C 242.785156 153.910156 242.832031 153.828125 242.878906 153.75 L 242.902344 153.714844 C 242.945312 153.644531 242.988281 153.574219 243.03125 153.511719 L 243.050781 153.484375 C 243.09375 153.417969 243.136719 153.359375 243.179688 153.304688 L 243.207031 153.273438 C 243.25 153.222656 243.289062 153.179688 243.332031 153.140625 L 243.351562 153.125 C 243.394531 153.085938 243.433594 153.058594 243.46875 153.035156 L 243.464844 153.027344 L 243.460938 153.011719"/><path fill="#CF7D57" d="M 238.859375 164.914062 C 238.859375 164.914062 237.660156 158.855469 238.207031 157.257812 C 238.207031 157.257812 229.898438 145.335938 234.738281 141.257812 C 234.738281 141.257812 235.226562 140.71875 236.726562 140.84375 C 236.726562 140.84375 240.644531 149.535156 242.953125 153.015625 C 242.953125 153.015625 243.574219 153.886719 243.828125 154.933594 C 243.828125 154.933594 246.199219 165.816406 246.859375 166.898438 C 246.859375 166.898438 248.660156 169.027344 248.238281 170.769531 C 248.238281 170.769531 238.691406 189.1875 237.773438 192.347656 C 236.859375 195.507812 235.105469 179.316406 235.105469 179.316406 L 238.859375 164.914062"/><g clip-path="url(#d)"><path fill="#E8A982" d="M 203.433594 241.382812 L 225.328125 241.382812 L 218.9375 212.644531 C 218.9375 212.644531 220.339844 211.097656 230.382812 201.480469 C 230.382812 201.480469 238.125 196.277344 239.046875 190.679688 C 239.046875 190.679688 241.25 180.453125 242.707031 174.550781 C 242.707031 174.550781 244.296875 172.390625 242.597656 169.335938 C 242.597656 169.335938 240.003906 162.148438 238.167969 157.886719 L 231.234375 148.109375 C 231.234375 148.109375 223.742188 148.746094 232.949219 160.089844 C 232.949219 160.089844 232.125 164.660156 234.960938 171.609375 C 234.960938 171.609375 231.585938 175.003906 229.035156 181.59375 C 229.035156 181.59375 223.773438 186.25 217.296875 190.703125 C 217.296875 190.703125 197.15625 196.730469 199.480469 209.351562 C 199.480469 209.351562 201.671875 217.535156 203.433594 241.382812"/></g><g clip-path="url(#e)"><path fill="#BE1E24" d="M 210.894531 159.503906 L 210.894531 159.472656 C 210.785156 157.378906 210.421875 155.355469 209.835938 153.429688 C 205.175781 134.011719 187.148438 92.980469 185.441406 89.121094 C 183.738281 92.980469 165.710938 134.011719 161.050781 153.433594 C 160.46875 155.355469 160.105469 157.371094 159.992188 159.457031 C 159.957031 159.949219 159.945312 160.402344 159.957031 160.8125 C 159.957031 174.871094 171.367188 186.265625 185.441406 186.265625 C 199.519531 186.265625 210.929688 174.871094 210.929688 160.8125 L 210.929688 160.808594 C 210.941406 160.414062 210.929688 159.976562 210.894531 159.503906"/></g><path fill="#C5857C" d="M 185.441406 186.265625 C 185.433594 186.265625 185.429688 186.265625 185.421875 186.265625 C 185.429688 186.265625 185.4375 186.265625 185.441406 186.265625 C 199.519531 186.265625 210.929688 174.871094 210.929688 160.8125 L 210.929688 160.808594 C 210.929688 160.710938 210.933594 160.609375 210.933594 160.503906 C 210.933594 160.609375 210.929688 160.710938 210.929688 160.808594 L 210.929688 160.8125 C 210.929688 174.871094 199.519531 186.265625 185.441406 186.265625 M 185.417969 186.265625 C 185.414062 186.265625 185.410156 186.265625 185.40625 186.265625 C 185.410156 186.265625 185.414062 186.265625 185.417969 186.265625 M 185.398438 186.265625 C 185.394531 186.265625 185.390625 186.265625 185.382812 186.265625 C 185.390625 186.265625 185.394531 186.265625 185.398438 186.265625 M 185.378906 186.265625 C 185.375 186.265625 185.367188 186.265625 185.367188 186.265625 C 185.367188 186.265625 185.375 186.265625 185.378906 186.265625 M 185.359375 186.265625 C 185.351562 186.265625 185.347656 186.265625 185.339844 186.265625 C 185.34375 186.265625 185.351562 186.265625 185.359375 186.265625 M 185.335938 186.265625 C 185.332031 186.265625 185.324219 186.265625 185.320312 186.265625 C 185.324219 186.265625 185.332031 186.265625 185.335938 186.265625 M 185.3125 186.265625 C 185.308594 186.265625 185.304688 186.265625 185.300781 186.265625 C 185.304688 186.265625 185.308594 186.265625 185.3125 186.265625 M 185.292969 186.265625 C 185.289062 186.265625 185.289062 186.265625 185.285156 186.265625 C 185.285156 186.265625 185.292969 186.265625 185.292969 186.265625 M 185.273438 186.265625 C 185.269531 186.265625 185.265625 186.265625 185.261719 186.265625 C 185.269531 186.265625 185.269531 186.265625 185.273438 186.265625 M 185.253906 186.265625 C 185.25 186.265625 185.242188 186.265625 185.238281 186.265625 C 185.246094 186.265625 185.25 186.265625 185.253906 186.265625 M 185.230469 186.265625 C 185.226562 186.265625 185.222656 186.265625 185.21875 186.265625 C 185.222656 186.265625 185.226562 186.265625 185.230469 186.265625 M 185.210938 186.265625 C 185.207031 186.265625 185.203125 186.265625 185.199219 186.265625 C 185.203125 186.265625 185.207031 186.265625 185.210938 186.265625 M 185.191406 186.265625 C 185.1875 186.265625 185.183594 186.265625 185.179688 186.265625 C 185.183594 186.265625 185.1875 186.265625 185.191406 186.265625 M 185.171875 186.265625 C 185.167969 186.265625 185.164062 186.265625 185.160156 186.265625 C 185.164062 186.265625 185.167969 186.265625 185.171875 186.265625 M 185.152344 186.265625 C 185.148438 186.265625 185.140625 186.265625 185.136719 186.265625 C 185.140625 186.265625 185.148438 186.265625 185.152344 186.265625 M 185.125 186.265625 C 185.121094 186.265625 185.121094 186.265625 185.117188 186.265625 C 185.121094 186.265625 185.121094 186.265625 185.125 186.265625 M 185.105469 186.265625 C 185.101562 186.265625 185.101562 186.265625 185.097656 186.265625 C 185.101562 186.265625 185.101562 186.265625 185.105469 186.265625 M 185.085938 186.265625 C 185.085938 186.265625 185.082031 186.265625 185.078125 186.265625 C 185.082031 186.265625 185.085938 186.265625 185.085938 186.265625 M 185.070312 186.265625 C 185.066406 186.265625 185.0625 186.265625 185.0625 186.265625 C 185.0625 186.265625 185.066406 186.265625 185.070312 186.265625 M 185.019531 186.265625 C 185.019531 186.265625 185.019531 186.265625 185.015625 186.265625 C 185.015625 186.265625 185.019531 186.265625 185.019531 186.265625 M 185.003906 186.265625 C 185 186.265625 185 186.265625 184.996094 186.265625 C 185 186.265625 185 186.265625 185.003906 186.265625 M 184.984375 186.265625 C 184.980469 186.265625 184.980469 186.265625 184.980469 186.265625 C 184.980469 186.265625 184.980469 186.265625 184.984375 186.265625 M 184.914062 186.261719 L 184.914062 186.261719 M 184.898438 186.261719 C 184.898438 186.261719 184.898438 186.261719 184.894531 186.261719 C 184.898438 186.261719 184.898438 186.261719 184.898438 186.261719"/><path fill="#A61B25" d="M 185.441406 186.265625 C 185.4375 186.265625 185.429688 186.265625 185.421875 186.265625 C 185.421875 186.265625 185.421875 186.265625 185.417969 186.265625 C 185.414062 186.265625 185.410156 186.265625 185.40625 186.265625 C 185.402344 186.265625 185.398438 186.265625 185.398438 186.265625 C 185.394531 186.265625 185.390625 186.265625 185.382812 186.265625 C 185.382812 186.265625 185.382812 186.265625 185.378906 186.265625 C 185.375 186.265625 185.367188 186.265625 185.367188 186.265625 C 185.363281 186.265625 185.359375 186.265625 185.359375 186.265625 C 185.351562 186.265625 185.34375 186.265625 185.339844 186.265625 C 185.339844 186.265625 185.335938 186.265625 185.335938 186.265625 C 185.332031 186.265625 185.324219 186.265625 185.320312 186.265625 C 185.320312 186.265625 185.316406 186.265625 185.3125 186.265625 C 185.308594 186.265625 185.304688 186.265625 185.300781 186.265625 C 185.300781 186.265625 185.296875 186.265625 185.292969 186.265625 C 185.292969 186.265625 185.285156 186.265625 185.285156 186.265625 C 185.28125 186.265625 185.277344 186.265625 185.273438 186.265625 C 185.269531 186.265625 185.269531 186.265625 185.261719 186.265625 C 185.261719 186.265625 185.257812 186.265625 185.253906 186.265625 C 185.25 186.265625 185.246094 186.265625 185.238281 186.265625 C 185.234375 186.265625 185.234375 186.265625 185.230469 186.265625 C 185.226562 186.265625 185.222656 186.265625 185.21875 186.265625 C 185.214844 186.265625 185.214844 186.265625 185.210938 186.265625 C 185.207031 186.265625 185.203125 186.265625 185.199219 186.265625 C 185.199219 186.265625 185.191406 186.265625 185.191406 186.265625 C 185.1875 186.265625 185.183594 186.265625 185.179688 186.265625 C 185.175781 186.265625 185.175781 186.265625 185.171875 186.265625 C 185.167969 186.265625 185.164062 186.265625 185.160156 186.265625 C 185.15625 186.265625 185.15625 186.265625 185.152344 186.265625 C 185.148438 186.265625 185.140625 186.265625 185.136719 186.265625 C 185.132812 186.265625 185.128906 186.265625 185.125 186.265625 C 185.121094 186.265625 185.121094 186.265625 185.117188 186.265625 C 185.113281 186.265625 185.109375 186.265625 185.105469 186.265625 C 185.101562 186.265625 185.101562 186.265625 185.097656 186.265625 C 185.09375 186.265625 185.089844 186.265625 185.085938 186.265625 C 185.085938 186.265625 185.082031 186.265625 185.078125 186.265625 C 185.074219 186.265625 185.070312 186.265625 185.070312 186.265625 C 185.066406 186.265625 185.0625 186.265625 185.0625 186.265625 C 185.050781 186.265625 185.035156 186.265625 185.019531 186.265625 C 185.019531 186.265625 185.015625 186.265625 185.015625 186.265625 C 185.011719 186.265625 185.007812 186.265625 185.003906 186.265625 C 185 186.265625 185 186.265625 184.996094 186.265625 C 184.992188 186.265625 184.988281 186.265625 184.984375 186.265625 C 184.980469 186.265625 184.980469 186.265625 184.980469 186.265625 C 184.972656 186.265625 184.96875 186.265625 184.964844 186.265625 C 184.949219 186.261719 184.933594 186.261719 184.914062 186.261719 C 184.910156 186.261719 184.902344 186.261719 184.898438 186.261719 C 184.898438 186.261719 184.898438 186.261719 184.894531 186.261719 C 173.46875 186.019531 163.898438 178.265625 160.921875 167.746094 C 165.445312 169.472656 172.285156 171.484375 179.59375 171.484375 C 190.425781 171.484375 202.285156 167.0625 209.144531 150.738281 C 209.398438 151.671875 209.628906 152.574219 209.835938 153.429688 C 210.421875 155.355469 210.785156 157.378906 210.894531 159.472656 L 210.894531 159.503906 C 210.921875 159.859375 210.933594 160.191406 210.933594 160.503906 C 210.933594 160.609375 210.929688 160.710938 210.929688 160.808594 L 210.929688 160.8125 C 210.929688 174.871094 199.519531 186.265625 185.441406 186.265625"/><g fill="#A61B24"><use x="157.589" y="273.718" xmlns:xlink="http://www.w3.org/1999/xlink" xlink:href="#f" xlink:type="simple" xlink:actuate="onLoad" xlink:show="embed"/></g><g fill="#A61B24"><use x="172.283" y="273.718" xmlns:xlink="http://www.w3.org/1999/xlink" xlink:href="#g" xlink:type="simple" xlink:actuate="onLoad" xlink:show="embed"/></g><g fill="#A61B24"><use x="186.978" y="273.718" xmlns:xlink="http://www.w3.org/1999/xlink" xlink:href="#g" xlink:type="simple" xlink:actuate="onLoad" xlink:show="embed"/></g><g fill="#A61B24"><use x="201.672" y="273.718" xmlns:xlink="http://www.w3.org/1999/xlink" xlink:href="#h" xlink:type="simple" xlink:actuate="onLoad" xlink:show="embed"/></g></svg>