<svg xmlns="http://www.w3.org/2000/svg" width="841.92" viewBox="0 0 841.92 595.5" height="595.5" version="1.0"><defs><clipPath id="a"><path d="M 301.859375 145.007812 L 539.339844 145.007812 L 539.339844 382.488281 L 301.859375 382.488281 Z M 301.859375 145.007812"/></clipPath></defs><g clip-path="url(#a)"><path fill="#FFF" d="M 337.480469 145.007812 L 503.71875 145.007812 C 504.886719 145.007812 506.046875 145.066406 507.210938 145.179688 C 508.371094 145.292969 509.523438 145.464844 510.667969 145.695312 C 511.8125 145.921875 512.941406 146.203125 514.058594 146.542969 C 515.175781 146.882812 516.273438 147.273438 517.351562 147.71875 C 518.429688 148.167969 519.480469 148.664062 520.511719 149.214844 C 521.539062 149.765625 522.539062 150.363281 523.507812 151.011719 C 524.480469 151.660156 525.414062 152.355469 526.316406 153.09375 C 527.21875 153.835938 528.082031 154.617188 528.90625 155.441406 C 529.730469 156.265625 530.515625 157.128906 531.253906 158.03125 C 531.996094 158.933594 532.6875 159.871094 533.335938 160.839844 C 533.984375 161.808594 534.582031 162.808594 535.132812 163.839844 C 535.683594 164.867188 536.183594 165.921875 536.628906 167 C 537.074219 168.078125 537.46875 169.175781 537.804688 170.289062 C 538.144531 171.40625 538.429688 172.539062 538.65625 173.679688 C 538.882812 174.824219 539.054688 175.976562 539.167969 177.140625 C 539.28125 178.300781 539.339844 179.464844 539.339844 180.632812 L 539.339844 346.867188 C 539.339844 348.035156 539.28125 349.199219 539.167969 350.359375 C 539.054688 351.519531 538.882812 352.671875 538.65625 353.816406 C 538.429688 354.960938 538.144531 356.089844 537.804688 357.207031 C 537.46875 358.324219 537.074219 359.421875 536.628906 360.5 C 536.183594 361.578125 535.683594 362.628906 535.132812 363.660156 C 534.582031 364.6875 533.984375 365.6875 533.335938 366.65625 C 532.6875 367.628906 531.996094 368.5625 531.253906 369.464844 C 530.515625 370.367188 529.730469 371.230469 528.90625 372.054688 C 528.082031 372.878906 527.21875 373.664062 526.316406 374.402344 C 525.414062 375.144531 524.480469 375.835938 523.507812 376.484375 C 522.539062 377.132812 521.539062 377.734375 520.511719 378.28125 C 519.480469 378.832031 518.429688 379.332031 517.351562 379.777344 C 516.273438 380.222656 515.175781 380.617188 514.058594 380.953125 C 512.941406 381.292969 511.8125 381.578125 510.667969 381.804688 C 509.523438 382.03125 508.371094 382.203125 507.210938 382.316406 C 506.046875 382.433594 504.886719 382.488281 503.71875 382.488281 L 337.480469 382.488281 C 336.316406 382.488281 335.152344 382.433594 333.992188 382.316406 C 332.828125 382.203125 331.675781 382.03125 330.53125 381.804688 C 329.386719 381.578125 328.257812 381.292969 327.140625 380.953125 C 326.023438 380.617188 324.929688 380.222656 323.851562 379.777344 C 322.773438 379.332031 321.71875 378.832031 320.691406 378.28125 C 319.660156 377.734375 318.660156 377.132812 317.691406 376.484375 C 316.722656 375.835938 315.785156 375.144531 314.882812 374.402344 C 313.980469 373.664062 313.117188 372.878906 312.292969 372.054688 C 311.46875 371.230469 310.6875 370.367188 309.945312 369.464844 C 309.207031 368.5625 308.511719 367.628906 307.863281 366.65625 C 307.214844 365.6875 306.617188 364.6875 306.066406 363.660156 C 305.515625 362.628906 305.019531 361.578125 304.570312 360.5 C 304.125 359.421875 303.734375 358.324219 303.394531 357.207031 C 303.054688 356.089844 302.773438 354.960938 302.542969 353.816406 C 302.316406 352.671875 302.144531 351.519531 302.03125 350.359375 C 301.917969 349.199219 301.859375 348.035156 301.859375 346.867188 L 301.859375 180.632812 C 301.859375 179.464844 301.917969 178.300781 302.03125 177.140625 C 302.144531 175.976562 302.316406 174.824219 302.542969 173.679688 C 302.773438 172.539062 303.054688 171.40625 303.394531 170.289062 C 303.734375 169.175781 304.125 168.078125 304.570312 167 C 305.019531 165.921875 305.515625 164.867188 306.066406 163.839844 C 306.617188 162.808594 307.214844 161.808594 307.863281 160.839844 C 308.511719 159.871094 309.207031 158.933594 309.945312 158.03125 C 310.6875 157.128906 311.46875 156.265625 312.292969 155.441406 C 313.117188 154.617188 313.980469 153.835938 314.882812 153.09375 C 315.785156 152.355469 316.722656 151.660156 317.691406 151.011719 C 318.660156 150.363281 319.660156 149.765625 320.691406 149.214844 C 321.71875 148.664062 322.773438 148.167969 323.851562 147.71875 C 324.929688 147.273438 326.023438 146.882812 327.140625 146.542969 C 328.257812 146.203125 329.386719 145.921875 330.53125 145.695312 C 331.675781 145.464844 332.828125 145.292969 333.992188 145.179688 C 335.152344 145.066406 336.316406 145.007812 337.480469 145.007812 Z M 337.480469 145.007812"/></g><path fill="#D54C3F" d="M 348.75 201.855469 L 492.261719 201.855469 C 493.03125 201.855469 493.796875 201.929688 494.550781 202.082031 C 495.308594 202.230469 496.042969 202.453125 496.753906 202.75 C 497.46875 203.042969 498.144531 203.40625 498.785156 203.835938 C 499.425781 204.261719 500.019531 204.75 500.566406 205.296875 C 501.109375 205.839844 501.597656 206.433594 502.023438 207.074219 C 502.453125 207.714844 502.816406 208.394531 503.109375 209.105469 C 503.40625 209.816406 503.628906 210.550781 503.777344 211.308594 C 503.929688 212.066406 504.003906 212.828125 504.003906 213.601562 L 504.003906 313.976562 C 504.003906 314.746094 503.929688 315.511719 503.777344 316.269531 C 503.628906 317.023438 503.40625 317.757812 503.109375 318.472656 C 502.816406 319.183594 502.453125 319.859375 502.023438 320.5 C 501.597656 321.144531 501.109375 321.734375 500.566406 322.28125 C 500.019531 322.828125 499.425781 323.3125 498.785156 323.742188 C 498.144531 324.171875 497.46875 324.53125 496.753906 324.828125 C 496.042969 325.121094 495.308594 325.34375 494.550781 325.496094 C 493.796875 325.644531 493.03125 325.722656 492.261719 325.722656 L 348.75 325.722656 C 347.980469 325.722656 347.21875 325.644531 346.460938 325.496094 C 345.703125 325.34375 344.96875 325.121094 344.257812 324.828125 C 343.546875 324.53125 342.867188 324.171875 342.226562 323.742188 C 341.585938 323.3125 340.992188 322.828125 340.449219 322.28125 C 339.902344 321.734375 339.414062 321.144531 338.988281 320.5 C 338.558594 319.859375 338.195312 319.183594 337.902344 318.472656 C 337.605469 317.757812 337.382812 317.023438 337.234375 316.269531 C 337.082031 315.511719 337.007812 314.746094 337.007812 313.976562 L 337.007812 213.601562 C 337.007812 212.828125 337.082031 212.066406 337.234375 211.308594 C 337.382812 210.550781 337.605469 209.816406 337.902344 209.105469 C 338.195312 208.394531 338.558594 207.714844 338.988281 207.074219 C 339.414062 206.433594 339.902344 205.839844 340.449219 205.296875 C 340.992188 204.75 341.585938 204.261719 342.226562 203.835938 C 342.867188 203.40625 343.546875 203.042969 344.257812 202.75 C 344.96875 202.453125 345.703125 202.230469 346.460938 202.082031 C 347.21875 201.929688 347.980469 201.855469 348.75 201.855469 Z M 348.75 201.855469"/><path fill="#EAEAEA" d="M 359.605469 202.445312 L 486.898438 202.445312 L 486.898438 325.714844 L 359.605469 325.714844 Z M 359.605469 202.445312"/><path fill="#E3E3E3" d="M 410.097656 286.429688 L 359.605469 325.714844 L 359.609375 236.425781 L 410.09375 286.425781"/><path d="M 449.046875 325.734375 L 344.609375 221.332031 L 487.328125 217.945312 L 486.898438 325.71875 Z M 449.046875 325.734375" fill-opacity=".098"/><path fill="#EFEFEF" d="M 347.511719 201.902344 L 422.824219 257.578125 L 492.121094 201.921875 Z M 347.511719 201.902344"/><path fill="#DE5145" d="M 499.777344 220.566406 C 500.332031 220.179688 500.84375 219.738281 501.316406 219.25 C 501.785156 218.761719 502.203125 218.230469 502.566406 217.660156 C 502.933594 217.089844 503.238281 216.484375 503.484375 215.855469 C 503.730469 215.222656 503.914062 214.574219 504.035156 213.90625 C 504.152344 213.238281 504.203125 212.5625 504.191406 211.886719 C 504.175781 211.207031 504.097656 210.539062 503.949219 209.875 C 503.804688 209.214844 503.59375 208.570312 503.324219 207.949219 C 503.050781 207.328125 502.71875 206.742188 502.332031 206.183594 C 501.941406 205.628906 501.503906 205.117188 501.015625 204.644531 C 500.523438 204.175781 499.996094 203.757812 499.421875 203.394531 C 498.851562 203.03125 498.25 202.722656 497.617188 202.476562 C 496.984375 202.230469 496.335938 202.046875 495.667969 201.929688 C 495 201.8125 494.328125 201.761719 493.648438 201.773438 C 492.96875 201.789062 492.300781 201.867188 491.636719 202.015625 C 490.976562 202.160156 490.335938 202.371094 489.714844 202.644531 C 489.09375 202.917969 488.503906 203.246094 487.949219 203.636719 L 421.574219 251.921875 L 421.566406 251.96875 L 421.558594 251.964844 L 355.203125 203.636719 C 354.640625 203.253906 354.042969 202.929688 353.414062 202.664062 C 352.785156 202.394531 352.136719 202.191406 351.46875 202.050781 C 350.800781 201.910156 350.125 201.832031 349.4375 201.824219 C 348.753906 201.8125 348.078125 201.871094 347.402344 201.992188 C 346.730469 202.113281 346.074219 202.300781 345.441406 202.550781 C 344.804688 202.796875 344.199219 203.105469 343.625 203.472656 C 343.050781 203.839844 342.519531 204.257812 342.027344 204.730469 C 341.535156 205.199219 341.097656 205.714844 340.707031 206.269531 C 340.320312 206.824219 339.992188 207.414062 339.71875 208.03125 C 339.449219 208.652344 339.242188 209.292969 339.097656 209.953125 C 338.957031 210.613281 338.878906 211.28125 338.867188 211.953125 C 338.859375 212.628906 338.917969 213.300781 339.039062 213.964844 C 339.164062 214.628906 339.351562 215.273438 339.605469 215.898438 C 339.859375 216.527344 340.167969 217.125 340.542969 217.691406 C 340.914062 218.257812 341.339844 218.78125 341.816406 219.265625 C 342.292969 219.75 342.8125 220.183594 343.375 220.566406 L 343.101562 220.382812 L 421.578125 277.527344 M 500.070312 220.382812 L 421.21875 277.898438"/></svg>