<svg xmlns="http://www.w3.org/2000/svg" width="841.92" viewBox="0 0 841.92 595.5" height="595.5" version="1.0"><defs><clipPath id="a"><path d="M 301.859375 189.03125 L 539.339844 189.03125 L 539.339844 426.507812 L 301.859375 426.507812 Z M 301.859375 189.03125"/></clipPath></defs><g clip-path="url(#a)"><path fill="#0077B5" d="M 337.480469 189.03125 L 503.71875 189.03125 C 504.886719 189.03125 506.046875 189.085938 507.210938 189.199219 C 508.371094 189.316406 509.523438 189.488281 510.667969 189.714844 C 511.8125 189.941406 512.941406 190.226562 514.058594 190.5625 C 515.175781 190.902344 516.273438 191.292969 517.351562 191.742188 C 518.429688 192.1875 519.480469 192.6875 520.511719 193.234375 C 521.539062 193.785156 522.539062 194.382812 523.507812 195.03125 C 524.480469 195.679688 525.414062 196.375 526.316406 197.117188 C 527.21875 197.855469 528.082031 198.636719 528.90625 199.464844 C 529.730469 200.289062 530.515625 201.152344 531.253906 202.054688 C 531.996094 202.953125 532.6875 203.890625 533.335938 204.859375 C 533.984375 205.832031 534.582031 206.832031 535.132812 207.859375 C 535.683594 208.886719 536.183594 209.941406 536.628906 211.019531 C 537.074219 212.097656 537.46875 213.195312 537.804688 214.3125 C 538.144531 215.425781 538.429688 216.558594 538.65625 217.703125 C 538.882812 218.847656 539.054688 220 539.167969 221.160156 C 539.28125 222.320312 539.339844 223.484375 539.339844 224.652344 L 539.339844 390.886719 C 539.339844 392.054688 539.28125 393.21875 539.167969 394.378906 C 539.054688 395.539062 538.882812 396.691406 538.65625 397.835938 C 538.429688 398.980469 538.144531 400.113281 537.804688 401.226562 C 537.46875 402.34375 537.074219 403.441406 536.628906 404.519531 C 536.183594 405.597656 535.683594 406.652344 535.132812 407.679688 C 534.582031 408.707031 533.984375 409.707031 533.335938 410.679688 C 532.6875 411.648438 531.996094 412.585938 531.253906 413.484375 C 530.515625 414.386719 529.730469 415.25 528.90625 416.074219 C 528.082031 416.902344 527.21875 417.683594 526.316406 418.421875 C 525.414062 419.164062 524.480469 419.859375 523.507812 420.507812 C 522.539062 421.15625 521.539062 421.753906 520.511719 422.304688 C 519.480469 422.851562 518.429688 423.351562 517.351562 423.796875 C 516.273438 424.246094 515.175781 424.636719 514.058594 424.976562 C 512.941406 425.3125 511.8125 425.597656 510.667969 425.824219 C 509.523438 426.050781 508.371094 426.222656 507.210938 426.339844 C 506.046875 426.453125 504.886719 426.507812 503.71875 426.507812 L 337.480469 426.507812 C 336.316406 426.507812 335.152344 426.453125 333.992188 426.339844 C 332.828125 426.222656 331.675781 426.050781 330.53125 425.824219 C 329.386719 425.597656 328.257812 425.3125 327.140625 424.976562 C 326.023438 424.636719 324.929688 424.246094 323.851562 423.796875 C 322.773438 423.351562 321.71875 422.851562 320.691406 422.304688 C 319.660156 421.753906 318.660156 421.15625 317.691406 420.507812 C 316.722656 419.859375 315.785156 419.164062 314.882812 418.421875 C 313.980469 417.683594 313.117188 416.902344 312.292969 416.074219 C 311.46875 415.25 310.6875 414.386719 309.945312 413.484375 C 309.207031 412.585938 308.511719 411.648438 307.863281 410.679688 C 307.214844 409.707031 306.617188 408.707031 306.066406 407.679688 C 305.515625 406.652344 305.019531 405.597656 304.570312 404.519531 C 304.125 403.441406 303.734375 402.34375 303.394531 401.226562 C 303.054688 400.113281 302.773438 398.980469 302.542969 397.835938 C 302.316406 396.691406 302.144531 395.539062 302.03125 394.378906 C 301.917969 393.21875 301.859375 392.054688 301.859375 390.886719 L 301.859375 224.652344 C 301.859375 223.484375 301.917969 222.320312 302.03125 221.160156 C 302.144531 220 302.316406 218.847656 302.542969 217.703125 C 302.773438 216.558594 303.054688 215.425781 303.394531 214.3125 C 303.734375 213.195312 304.125 212.097656 304.570312 211.019531 C 305.019531 209.941406 305.515625 208.886719 306.066406 207.859375 C 306.617188 206.832031 307.214844 205.832031 307.863281 204.859375 C 308.511719 203.890625 309.207031 202.953125 309.945312 202.054688 C 310.6875 201.152344 311.46875 200.289062 312.292969 199.464844 C 313.117188 198.636719 313.980469 197.855469 314.882812 197.117188 C 315.785156 196.375 316.722656 195.679688 317.691406 195.03125 C 318.660156 194.382812 319.660156 193.785156 320.691406 193.234375 C 321.71875 192.6875 322.773438 192.1875 323.851562 191.742188 C 324.929688 191.292969 326.023438 190.902344 327.140625 190.5625 C 328.257812 190.226562 329.386719 189.941406 330.53125 189.714844 C 331.675781 189.488281 332.828125 189.316406 333.992188 189.199219 C 335.152344 189.085938 336.316406 189.03125 337.480469 189.03125 Z M 337.480469 189.03125"/></g><path fill="#FFF" d="M 384.886719 253.039062 C 384.886719 253.601562 384.859375 254.160156 384.804688 254.71875 C 384.746094 255.28125 384.664062 255.835938 384.554688 256.386719 C 384.445312 256.9375 384.308594 257.480469 384.144531 258.019531 C 383.984375 258.558594 383.792969 259.085938 383.578125 259.605469 C 383.363281 260.125 383.125 260.632812 382.859375 261.128906 C 382.59375 261.625 382.304688 262.105469 381.992188 262.574219 C 381.679688 263.039062 381.347656 263.492188 380.988281 263.925781 C 380.632812 264.359375 380.257812 264.777344 379.859375 265.171875 C 379.460938 265.570312 379.046875 265.949219 378.609375 266.304688 C 378.175781 266.660156 377.726562 266.996094 377.257812 267.308594 C 376.789062 267.621094 376.308594 267.90625 375.8125 268.171875 C 375.316406 268.4375 374.808594 268.679688 374.292969 268.894531 C 373.773438 269.109375 373.242188 269.296875 372.707031 269.460938 C 372.167969 269.625 371.625 269.761719 371.070312 269.871094 C 370.519531 269.980469 369.964844 270.0625 369.40625 270.117188 C 368.847656 270.171875 368.285156 270.199219 367.722656 270.199219 C 367.160156 270.199219 366.601562 270.171875 366.042969 270.117188 C 365.480469 270.0625 364.925781 269.980469 364.375 269.871094 C 363.824219 269.761719 363.28125 269.625 362.742188 269.460938 C 362.203125 269.296875 361.675781 269.109375 361.15625 268.894531 C 360.636719 268.679688 360.128906 268.4375 359.632812 268.171875 C 359.136719 267.90625 358.65625 267.621094 358.1875 267.308594 C 357.722656 266.996094 357.269531 266.660156 356.835938 266.304688 C 356.402344 265.949219 355.984375 265.570312 355.589844 265.171875 C 355.191406 264.777344 354.8125 264.359375 354.457031 263.925781 C 354.101562 263.492188 353.765625 263.039062 353.453125 262.574219 C 353.140625 262.105469 352.851562 261.625 352.589844 261.128906 C 352.324219 260.632812 352.082031 260.125 351.867188 259.605469 C 351.652344 259.085938 351.464844 258.558594 351.300781 258.019531 C 351.136719 257.480469 351 256.9375 350.890625 256.386719 C 350.78125 255.835938 350.699219 255.28125 350.644531 254.71875 C 350.589844 254.160156 350.5625 253.601562 350.5625 253.039062 C 350.5625 252.476562 350.589844 251.914062 350.644531 251.355469 C 350.699219 250.796875 350.78125 250.242188 350.890625 249.691406 C 351 249.136719 351.136719 248.59375 351.300781 248.054688 C 351.464844 247.519531 351.652344 246.988281 351.867188 246.46875 C 352.082031 245.949219 352.324219 245.445312 352.589844 244.949219 C 352.851562 244.453125 353.140625 243.96875 353.453125 243.503906 C 353.765625 243.035156 354.101562 242.585938 354.457031 242.152344 C 354.8125 241.714844 355.191406 241.300781 355.589844 240.902344 C 355.984375 240.503906 356.402344 240.128906 356.835938 239.773438 C 357.269531 239.414062 357.722656 239.082031 358.1875 238.769531 C 358.65625 238.457031 359.136719 238.167969 359.632812 237.902344 C 360.128906 237.636719 360.636719 237.398438 361.15625 237.183594 C 361.675781 236.96875 362.203125 236.777344 362.742188 236.613281 C 363.28125 236.453125 363.824219 236.316406 364.375 236.207031 C 364.925781 236.097656 365.480469 236.015625 366.042969 235.957031 C 366.601562 235.902344 367.160156 235.875 367.722656 235.875 C 368.285156 235.875 368.847656 235.902344 369.40625 235.957031 C 369.964844 236.015625 370.519531 236.097656 371.070312 236.207031 C 371.625 236.316406 372.167969 236.453125 372.707031 236.613281 C 373.242188 236.777344 373.773438 236.96875 374.292969 237.183594 C 374.808594 237.398438 375.316406 237.636719 375.8125 237.902344 C 376.308594 238.167969 376.789062 238.457031 377.257812 238.769531 C 377.726562 239.082031 378.175781 239.414062 378.609375 239.773438 C 379.046875 240.128906 379.460938 240.503906 379.859375 240.902344 C 380.257812 241.300781 380.632812 241.714844 380.988281 242.152344 C 381.347656 242.585938 381.679688 243.035156 381.992188 243.503906 C 382.304688 243.96875 382.59375 244.453125 382.859375 244.949219 C 383.125 245.445312 383.363281 245.949219 383.578125 246.46875 C 383.792969 246.988281 383.984375 247.519531 384.144531 248.054688 C 384.308594 248.59375 384.445312 249.136719 384.554688 249.691406 C 384.664062 250.242188 384.746094 250.796875 384.800781 251.355469 C 384.859375 251.914062 384.886719 252.476562 384.886719 253.039062 Z M 384.886719 253.039062"/><path transform="matrix(.46383 0 0 .46383 301.86 189.03)" fill="#FFF" d="M 244.002051 193.998973 L 244.002051 392.003005 M 141.997677 193.998973 L 141.997677 392.003005" stroke="#FFF" stroke-width="66"/><path fill="#FFF" d="M 429.875 319.828125 C 429.875 310.550781 435.90625 301.277344 446.574219 301.277344 C 457.707031 301.277344 461.878906 309.625 461.878906 322.148438 L 461.878906 370.851562 L 492.492188 370.851562 L 492.492188 318.4375 C 492.492188 290.144531 477.652344 277.15625 457.242188 277.15625 C 441.472656 277.15625 433.585938 285.96875 429.875 292"/></svg>